<?xml version="1.0" encoding="utf-8"?>

<!DOCTYPE svg PUBLIC "-//W3C//DTD SVG 1.1//EN" "http://www.w3.org/Graphics/SVG/1.1/DTD/svg11.dtd">
<!-- Este archivo contiene multiples iconos para HTML - es importante guardar una copia por si es necesario de nuevo mas adelante -->

<svg xmlns="http://www.w3.org/2000/svg" xmlns:xlink="http://www.w3.org/1999/xlink" style="height: 0px; width: 0px; position: absolute; overflow: hidden;" aria-hidden="true">
    <defs>

        <path id="g-Meet" d="M2 18L2 32 12 32 12 18zM39 9v4.31l-10 9V16H14V6h22C37.66 6 39 7.34 39 9zM29 27.69l10 9V41c0 1.66-1.34 3-3 3H14V34h15V27.69zM12 34v10H5c-1.657 0-3-1.343-3-3v-7H12zM12 6L12 16 2 16zM29 25L39 16 39 34zM49 9.25v31.5c0 .87-1.03 1.33-1.67.75L41 35.8V14.2l6.33-5.7C47.97 7.92 49 8.38 49 9.25z"></path>
        <path id="g-Drive" display="inline" d="M243.186,194.343l-81.545,140.386L78.503,477.845L0.5,335.184L162.994,55.463L243.186,194.343z
		 M345.919,334.198l-159.938,0.466l-82.672,143.181l324.209-0.065L511.5,333.732L345.919,334.198z M499.011,312.436L335.964,34.632
		l-160.588-0.477l79.552,139.975l78.62,138.306H499.011z M345.919,334.198l165.581-0.466H345.647L345.919,334.198z"></path>
        <path id="Tele" d="M7.626 1.045c-.369.194-.675.628-.675.955 0 .333.105.467 1.401 1.768l1.222 1.229-3.057.012-3.057.012-.321.101c-.501.157-.832.364-1.243.774-.4.4-.6.717-.771 1.217l-.105.307v11.16l.105.307c.171.5.371.817.771 1.217.4.4.717.6 1.217.771l.307.105h17.16l.307-.105c.5-.171.817-.371 1.217-.771.4-.4.6-.717.771-1.217l.105-.307V7.42l-.105-.307c-.171-.5-.371-.817-.771-1.217-.411-.41-.742-.617-1.243-.774l-.321-.101-3.057-.012-3.057-.012 1.222-1.229c.804-.807 1.253-1.289 1.312-1.405.177-.352.088-.717-.259-1.064-.34-.34-.721-.431-1.073-.255-.109.055-.775.69-1.898 1.809L12 4.578l-1.73-1.725C9.147 1.734 8.481 1.099 8.372 1.044a.884.884 0 0 0-.746.001m4.454 5.981a808.62 808.62 0 0 1 4.16-.006c3.896 0 4.025.002 4.176.077.199.099.388.288.487.487.075.152.077.294.077 5.416 0 5.146-.002 5.263-.078 5.418a1.418 1.418 0 0 1-.232.307c-.306.297.399.275-8.67.275-9.069 0-8.364.022-8.67-.275a1.418 1.418 0 0 1-.232-.307c-.076-.154-.078-.284-.089-5.318-.008-3.557.001-5.214.031-5.333.084-.339.356-.626.686-.722.085-.024 1.62-.034 4.174-.026 2.222.007 4.103.01 4.18.007m4.534 3.031a.814.814 0 0 0-.505.396c-.074.139-.089.231-.089.547 0 .331.013.403.1.558.11.197.294.34.515.401.188.053 1.542.053 1.73 0a.842.842 0 0 0 .515-.401c.087-.156.1-.226.099-.558-.001-.313-.017-.409-.089-.547-.104-.197-.267-.322-.519-.398-.245-.073-1.52-.072-1.757.002m0 4a.814.814 0 0 0-.505.396c-.074.139-.089.231-.089.547 0 .331.013.403.1.558.11.197.294.34.515.401.188.053 1.542.053 1.73 0a.842.842 0 0 0 .515-.401c.087-.156.1-.226.099-.558-.001-.313-.017-.409-.089-.547-.104-.197-.267-.322-.519-.398-.245-.073-1.52-.072-1.757.002"></path>
        <path id="bookyyy" d="M2.499 3.042c-.645.111-1.105.356-1.603.854-.4.4-.6.717-.771 1.217L.02 5.42v11.16l.105.307c.171.5.371.817.771 1.217.401.4.718.601 1.217.771l.307.104 3.02.02c2.843.02 3.028.025 3.16.095.077.041.752.683 1.5 1.426.902.896 1.42 1.381 1.537 1.44a.8.8 0 0 0 .726 0c.117-.059.638-.548 1.537-1.44.748-.743 1.423-1.384 1.5-1.425.132-.071.31-.076 3.16-.096l3.02-.02.307-.104c.499-.17.816-.371 1.217-.771.4-.4.6-.717.771-1.217l.105-.307V5.42l-.105-.307c-.17-.5-.371-.817-.771-1.217-.418-.419-.781-.64-1.282-.784L21.5 3.02h-6.2l-.299.094c-.69.217-.87.349-2.031 1.501l-.97.961-.97-.961c-1.15-1.14-1.323-1.27-2.01-1.5l-.28-.094-3.02-.007c-1.661-.003-3.111.009-3.221.028M8.6 5.094c.077.041.648.58 1.27 1.2L11 7.419v11.154l-.47-.459c-.628-.612-.907-.797-1.51-.998l-.28-.094-3-.021c-3.325-.023-3.144-.008-3.427-.29a1.375 1.375 0 0 1-.216-.295c-.075-.151-.077-.305-.088-5.316-.008-3.551.002-5.214.031-5.333.083-.339.356-.625.686-.722.083-.024 1.203-.036 2.934-.032 2.638.007 2.808.011 2.94.081m12.816.003c.199.099.388.288.487.487.075.152.077.294.077 5.416 0 5.122-.002 5.264-.077 5.416-.043.086-.14.219-.216.295-.282.282-.105.267-3.407.291-3.305.025-3.133.011-3.745.302-.352.166-.591.352-1.125.87l-.41.398V7.418l1.152-1.149a53.568 53.568 0 0 1 1.17-1.15c.01 0 .09-.026.178-.058.135-.05.594-.057 2.96-.05 2.679.009 2.807.012 2.956.086M4.614 8.057a.814.814 0 0 0-.505.396c-.074.139-.089.231-.089.547 0 .331.013.403.1.558.11.197.294.34.515.401.087.024.835.041 1.865.041s1.778-.017 1.865-.041a.842.842 0 0 0 .515-.401c.087-.156.1-.226.099-.558-.001-.313-.017-.409-.089-.547-.104-.197-.267-.322-.519-.398-.257-.077-3.509-.075-3.757.002m11 0a.814.814 0 0 0-.505.396c-.074.139-.089.231-.089.547 0 .331.013.403.1.558.11.197.294.34.515.401.087.024.835.041 1.865.041s1.778-.017 1.865-.041a.842.842 0 0 0 .515-.401c.087-.156.1-.226.099-.558-.001-.313-.017-.409-.089-.547-.104-.197-.267-.322-.519-.398-.257-.077-3.509-.075-3.757.002m0 4a.814.814 0 0 0-.505.396c-.074.139-.089.231-.089.547 0 .331.013.403.1.558.11.197.294.34.515.401.087.024.835.041 1.865.041s1.778-.017 1.865-.041a.842.842 0 0 0 .515-.401c.087-.156.1-.226.099-.558-.001-.313-.017-.409-.089-.547-.104-.197-.267-.322-.519-.398-.257-.077-3.509-.075-3.757.002"></path>

        <path id="link-tiny" d="M8.171 0A3.834 3.834 0 0 1 12 3.829c0 .549-.116 1.082-.344 1.584a1 1 0 0 1-1.821-.826A1.831 1.831 0 0 0 8.171 2c-.488 0-.947.19-1.293.536L5.535 3.878A1.82 1.82 0 0 0 5 5.171c0 .489.19.949.535 1.294A1 1 0 1 1 4.122 7.88 3.804 3.804 0 0 1 3 5.171c0-1.022.398-1.983 1.121-2.707l1.343-1.342A3.8 3.8 0 0 1 8.171 0zM6.463 4.121a.999.999 0 0 1 1.414 0A3.805 3.805 0 0 1 9 6.828a3.808 3.808 0 0 1-1.122 2.707l-1.343 1.342A3.803 3.803 0 0 1 3.828 12 3.833 3.833 0 0 1 .343 6.587a1 1 0 1 1 1.821.826 1.83 1.83 0 0 0 2.957 2.051l1.343-1.342A1.82 1.82 0 0 0 7 6.83a1.82 1.82 0 0 0-.536-1.294 1 1 0 0 1-.001-1.414z"></path>
        <path id="add-small" d="M16 8h-6V2a1 1 0 1 0-2 0v6H2a1 1 0 1 0 0 2h6v6a1 1 0 1 0 2 0v-6h6a1 1 0 1 0 0-2"></path>
        <path id="pencil-small" d="M14 8.586L9.414 4 11 2.414 15.586 7 14 8.586zM6.586 16H2v-4.586l6-6L12.586 10l-6 6zm11.121-9.707l-6-6a.999.999 0 0 0-1.414 0l-9.999 10a.99.99 0 0 0-.217.325A.991.991 0 0 0 0 11v6a1 1 0 0 0 1 1h6c.13 0 .26-.026.382-.077a.99.99 0 0 0 .326-.217l9.999-9.999a.999.999 0 0 0 0-1.414z"></path>
        <path id="link-small" d="M9.605 6.98a.999.999 0 0 1 1.414 0 5.183 5.183 0 0 1 0 7.322l-1.181 1.181A5.148 5.148 0 0 1 6.177 17a5.144 5.144 0 0 1-3.66-1.517A5.142 5.142 0 0 1 1 11.823a5.14 5.14 0 0 1 1.517-3.66.999.999 0 1 1 1.414 1.413A3.155 3.155 0 0 0 3 11.822c0 .85.331 1.647.931 2.248 1.2 1.2 3.293 1.2 4.493 0l1.181-1.181a3.181 3.181 0 0 0 0-4.494.999.999 0 0 1 0-1.414zm5.89-4.476A5.104 5.104 0 0 1 17 6.134a5.103 5.103 0 0 1-1.504 3.633 1 1 0 0 1-1.414-1.414c.592-.593.918-1.38.918-2.218 0-.837-.326-1.624-.918-2.217-1.185-1.184-3.25-1.184-4.434 0l-1.17 1.17a3.114 3.114 0 0 0-.918 2.217c0 .838.326 1.625.918 2.217a.999.999 0 1 1-1.414 1.414A5.099 5.099 0 0 1 5.56 7.305c0-1.371.534-2.661 1.504-3.631l1.17-1.17A5.102 5.102 0 0 1 11.864 1a5.1 5.1 0 0 1 3.632 1.504z"></path>
        <path id="close-small" d="M10.414 9l6.293-6.293a.999.999 0 1 0-1.414-1.414L9 7.586 2.707 1.293a.999.999 0 1 0-1.414 1.414L7.586 9l-6.293 6.293a.999.999 0 1 0 1.414 1.414L9 10.414l6.293 6.293a.997.997 0 0 0 1.414 0 .999.999 0 0 0 0-1.414L10.414 9z"></path>
        <path id="flag-small" d="M3 11h10.586l-3.293-3.293a.999.999 0 0 1 0-1.414L13.586 3H3v8zm-1 7a1 1 0 0 1-1-1V1a1 1 0 0 1 2 0h13a1.002 1.002 0 0 1 .707 1.707L12.414 7l4.293 4.293A1 1 0 0 1 16 13H3v4a1 1 0 0 1-1 1z"></path>
        <path id="alert-small" d="M2.618 15.995L9 3.199l6.382 12.796H2.618zm15.276.554l-8-16.04C9.555-.17 8.445-.17 8.105.51l-8 16.04A1.003 1.003 0 0 0 1 18h16c.347 0 .668-.18.85-.476a.998.998 0 0 0 .044-.975zM8 7.975V9.98a1 1 0 1 0 2 0V7.975a1 1 0 1 0-2 0m1.71 4.3c-.05-.04-.1-.09-.16-.12a.567.567 0 0 0-.17-.09.61.61 0 0 0-.19-.06.999.999 0 0 0-.9.27c-.09.101-.16.201-.21.33a1.01 1.01 0 0 0-.08.383c0 .26.11.52.29.711.19.18.44.291.71.291.06 0 .13-.01.19-.02a.635.635 0 0 0 .19-.06.59.59 0 0 0 .17-.09c.06-.04.11-.08.16-.12.18-.192.29-.452.29-.712 0-.132-.03-.261-.08-.382a.94.94 0 0 0-.21-.33"></path>
        <path id="close-tiny" d="M7.426 6.001l4.278-4.279A1.008 1.008 0 1 0 10.278.296L6 4.574 1.723.296A1.008 1.008 0 1 0 .295 1.722l4.278 4.28-4.279 4.277a1.008 1.008 0 1 0 1.427 1.426L6 7.427l4.278 4.278a1.006 1.006 0 0 0 1.426 0 1.008 1.008 0 0 0 0-1.426L7.425 6.001z"></path>
        <path id="aarow-tiny" d="M5 11a.997.997 0 0 1-.707-.293l-4-4A.983.983 0 0 1 0 6.003v-.006a.988.988 0 0 1 .293-.704l4-4a.999.999 0 1 1 1.414 1.414L3.414 5H11a1 1 0 1 1 0 2H3.414l2.293 2.293A.999.999 0 0 1 5 11"></path>
        
        <filter id="a" width="130%" height="130%" x="-15%" y="-15%" filterUnits="objectBoundingBox">
            <feOffset in="SourceAlpha" result="shadowOffsetOuter1"></feOffset>
            <feGaussianBlur in="shadowOffsetOuter1" result="shadowBlurOuter1" stdDeviation="7.5"></feGaussianBlur>
            <feColorMatrix in="shadowBlurOuter1" values="0 0 0 0 0 0 0 0 0 0 0 0 0 0 0 0 0 0 0.3 0"></feColorMatrix>
        </filter>

        <rect id="b" width="150" height="150" rx="75"></rect>
        <path id="facebook-small" d="M12.81 3.746h-1.43c-1.143 0-1.333.568-1.333 1.325V6.87h2.762l-.286 2.84h-2.286V17H7.381V9.71H5V6.87h2.381V4.787C7.381 2.42 8.81 1 10.905 1c.952 0 1.81.095 2.095.095v2.65h-.19z"></path>
        <path id="reddit-small" d="M16.637 10.209c.293-.237.44-.561.44-.975 0-.295-.092-.554-.28-.775a.901.901 0 0 0-.721-.332.945.945 0 0 0-.601.223c.56.531.948 1.15 1.162 1.859M14.533 2.46a.82.82 0 0 0-.182.533c0 .206.062.383.182.53a.566.566 0 0 0 .46.222.627.627 0 0 0 .482-.221.764.764 0 0 0 .2-.531.768.768 0 0 0-.2-.533.627.627 0 0 0-.482-.22.566.566 0 0 0-.46.22m-3.769 9.475c.254.266.554.399.902.399a1.2 1.2 0 0 0 .901-.4c.255-.265.382-.603.382-1.017a1.4 1.4 0 0 0-.361-.975 1.191 1.191 0 0 0-.922-.398c-.375 0-.68.134-.922.398a1.396 1.396 0 0 0-.361.975c0 .414.126.752.381 1.018m-1.784 3.94c1.283 0 2.325-.442 3.127-1.328l-.522-.53c-.667.708-1.536 1.061-2.605 1.061a3.53 3.53 0 0 1-1.363-.266c-.428-.176-.736-.353-.923-.531l-.28-.264-.521.53c.801.886 1.83 1.328 3.087 1.328m-3.89-4.958c0 .414.128.752.382 1.018.253.266.554.399.901.399.35 0 .648-.133.904-.4.252-.265.379-.603.379-1.017 0-.384-.12-.708-.36-.975a1.19 1.19 0 0 0-.923-.398c-.373 0-.68.134-.922.398-.24.267-.36.591-.36.975m-3.728-.752c.214-.68.6-1.284 1.162-1.815a.943.943 0 0 0-.6-.223c-.268 0-.502.111-.703.332-.201.221-.3.48-.3.775 0 .444.147.754.44.931M18 9.28c0 .914-.36 1.58-1.083 1.991.028.15.041.355.041.622 0 1.681-.782 3.12-2.345 4.316C13.049 17.403 11.171 18 8.98 18s-4.062-.591-5.613-1.772c-1.55-1.18-2.325-2.61-2.325-4.293 0-.295.013-.516.04-.665C.361 10.858 0 10.193 0 9.28c0-.619.2-1.144.6-1.571.402-.429.87-.643 1.405-.643.48 0 .921.191 1.322.577C4.797 6.52 6.521 5.915 8.5 5.826h.079l1.243-4.56 3.608.796C13.804 1.353 14.326 1 14.993 1h.04c.508 0 .93.193 1.263.576.334.384.501.856.501 1.417 0 .56-.167 1.033-.501 1.417a1.602 1.602 0 0 1-1.262.574h-.042c-.453 0-.855-.17-1.202-.508a1.843 1.843 0 0 1-.56-1.262l-2.687-.62-.882 3.276c2.032.147 3.702.738 5.012 1.772.4-.386.855-.577 1.363-.577.534 0 .996.214 1.382.643.389.427.582.952.582 1.571"></path>
        <path id="twitter-small" d="M16.105 5.443v.459c0 4.705-3.67 10.098-10.42 10.098-2.132 0-4.027-.574-5.685-1.607.355 0 .592.115.947.115 1.658 0 3.316-.574 4.619-1.492-1.54 0-2.96-1.032-3.434-2.524.236 0 .473.115.71.115.355 0 .355 0 .83-.115C1.894 10.148.354 8.656.354 6.934c0 .345 1.303.345 1.895.46C1.303 6.703.71 5.671.71 4.41c0-.689.237-1.262.593-1.836C3.079 4.754 5.92 6.13 8.882 6.36c-.119-.345-.119-.574-.119-.804C8.763 3.607 10.421 2 12.434 2c1.066 0 2.013.344 2.724 1.148.829-.23 1.54-.46 2.25-.918-.355.918-.947 1.491-1.54 1.95.71-.114 1.54-.344 2.132-.573-.592.688-1.184 1.377-1.895 1.836z"></path>
        <path id="bell-a" d="M15 19a1 1 0 0 0-1 1c0 1.104-.897 2-2 2s-2-.896-2-2a1 1 0 1 0-2 0c0 2.205 1.794 4 4 4s4-1.795 4-4a1 1 0 0 0-1-1m-8.675-5l2.708-9.477A3.496 3.496 0 0 1 12.38 2c1.63 0 3.06 1.156 3.402 2.75L17.763 14H6.325zm11.411-9.668A5.507 5.507 0 0 0 12.38 0a5.505 5.505 0 0 0-5.27 3.975l-3.07 10.75A1 1 0 0 0 5 16h14a1 1 0 0 0 .977-1.209l-2.24-10.459z"></path>
        <path id="bubble-small" d="M15 10c0 .551-.449 1-1 1H9a.997.997 0 0 0-.707.293L6 13.586V12a1 1 0 0 0-1-1H4c-.551 0-1-.449-1-1V4c0-.551.449-1 1-1h10c.551 0 1 .449 1 1v6zm-1-9H4C2.346 1 1 2.346 1 4v6c0 1.654 1.346 3 3 3v3a1 1 0 0 0 1.707.707L9.414 13H14c1.654 0 3-1.346 3-3V4c0-1.654-1.346-3-3-3zm-2 5H6a1 1 0 1 0 0 2h6a1 1 0 1 0 0-2"></path>
        <path id="bubble-tiny" d="M3 2c-.551 0-1 .449-1 1v3c0 .551.449 1 1 1a1 1 0 0 1 1 1v.586l1.293-1.293A.997.997 0 0 1 6 7h3c.551 0 1-.449 1-1V3c0-.551-.449-1-1-1H3zm0 10a1.002 1.002 0 0 1-1-1V8.829A3.006 3.006 0 0 1 0 6V3c0-1.654 1.346-3 3-3h6c1.654 0 3 1.346 3 3v3c0 1.654-1.346 3-3 3H6.414l-2.707 2.707A1 1 0 0 1 3 12z"></path>
        <path id="comment-small" d="M7 3C4.794 3 3 4.795 3 7c0 1.062.418 2.064 1.177 2.822A3.966 3.966 0 0 0 7 11a1 1 0 0 1 1 1v1.586l2.293-2.293A.997.997 0 0 1 11 11c2.206 0 4-1.795 4-4a3.97 3.97 0 0 0-1.177-2.823A3.97 3.97 0 0 0 11 3H7zm0 14a1 1 0 0 1-1-1v-3.084a5.96 5.96 0 0 1-3.237-1.68A5.951 5.951 0 0 1 1 7c0-3.309 2.691-6 6-6h4c1.595 0 3.1.626 4.237 1.762A5.96 5.96 0 0 1 17 7a6.007 6.007 0 0 1-5.571 5.984l-3.722 3.723A1 1 0 0 1 7 17z"></path>
        <path id="comment-tiny" d="M4.5 2c-.668 0-1.293.26-1.757.731A2.459 2.459 0 0 0 2 4.5c0 1.235.92 2.297 2.141 2.47A1 1 0 0 1 5 7.96v.626l1.293-1.293A.997.997 0 0 1 7 7h.5c.668 0 1.293-.26 1.757-.731.483-.476.743-1.1.743-1.769C10 3.122 8.878 2 7.5 2h-3zM4 12a1 1 0 0 1-1-1V8.739A4.52 4.52 0 0 1 0 4.5c0-1.208.472-2.339 1.329-3.183A4.424 4.424 0 0 1 4.5 0h3C9.981 0 12 2.019 12 4.5a4.432 4.432 0 0 1-1.329 3.183A4.424 4.424 0 0 1 7.5 9h-.086l-2.707 2.707A1 1 0 0 1 4 12z"></path>
        <path id="flag-tiny" d="M3 7h5L6.59 5.707A.957.957 0 0 1 6.27 5a.96.96 0 0 1 .32-.707L8 3H3v4zm-1 5a1 1 0 0 1-1-1V1a1 1 0 1 1 2 0h7.03l.003.001h.017a1 1 0 0 1 .942.872v.001c.008.064.01.128.006.191v.002a.997.997 0 0 1-.283.631v.001l-.002.002-.001.001-.001.001-.002.002-.002.002L8.414 5l2.293 2.293.003.003.001.001.001.001.001.001.002.002v.001a.997.997 0 0 1 .283.631v.002a1.02 1.02 0 0 1-.006.191v.001a.996.996 0 0 1-.315.609 1 1 0 0 1-.627.263h-.017L10.03 9H3v2a1 1 0 0 1-1 1z"></path>
        <path id="mention-small" d="M13 0H9C6.61305 0 4.32387 0.948212 2.63604 2.63604C0.948212 4.32387 0 6.61305 0 9C0 11.3869 0.948212 13.6761 2.63604 15.364C4.32387 17.0518 6.61305 18 9 18H15C15.2652 18 15.5196 17.8946 15.7071 17.7071C15.8946 17.5196 16 17.2652 16 17C16 16.7348 15.8946 16.4804 15.7071 16.2929C15.5196 16.1054 15.2652 16 15 16H9C7.14348 16 5.36301 15.2625 4.05025 13.9497C2.7375 12.637 2 10.8565 2 9C2 7.14348 2.7375 5.36301 4.05025 4.05025C5.36301 2.7375 7.14348 2 9 2H13C13.7956 2 14.5587 2.31607 15.1213 2.87868C15.6839 3.44129 16 4.20435 16 5V10.5C16 10.8978 15.842 11.2794 15.5607 11.5607C15.2794 11.842 14.8978 12 14.5 12C14.1022 12 13.7206 11.842 13.4393 11.5607C13.158 11.2794 13 10.8978 13 10.5V6C13 5.73478 12.8946 5.48043 12.7071 5.29289C12.5196 5.10536 12.2652 5 12 5C11.8048 4.99932 11.6137 5.05577 11.4502 5.16238C11.2868 5.269 11.1581 5.42112 11.08 5.6C10.455 5.21262 9.7353 5.00502 9 5C7.93913 5 6.92172 5.42143 6.17157 6.17157C5.42143 6.92172 5 7.93913 5 9C5 10.0609 5.42143 11.0783 6.17157 11.8284C6.92172 12.5786 7.93913 13 9 13C9.88286 12.9999 10.7396 12.7002 11.43 12.15C11.7964 12.8376 12.3824 13.3829 13.0947 13.6989C13.8069 14.0149 14.6044 14.0834 15.3601 13.8937C16.1158 13.7039 16.7863 13.2666 17.2647 12.6516C17.7431 12.0366 18.002 11.2792 18 10.5V5C18 3.67392 17.4732 2.40215 16.5355 1.46447C15.5979 0.526784 14.3261 0 13 0V0ZM9 11C8.60444 11 8.21776 10.8827 7.88886 10.6629C7.55996 10.4432 7.30362 10.1308 7.15224 9.76537C7.00087 9.39991 6.96126 8.99778 7.03843 8.60982C7.1156 8.22186 7.30608 7.86549 7.58579 7.58579C7.86549 7.30608 8.22186 7.1156 8.60982 7.03843C8.99778 6.96126 9.39991 7.00087 9.76537 7.15224C10.1308 7.30362 10.4432 7.55996 10.6629 7.88886C10.8827 8.21776 11 8.60444 11 9C11 9.53043 10.7893 10.0391 10.4142 10.4142C10.0391 10.7893 9.53043 11 9 11Z"></path>
        <path id="mention-tiny" d="M9 0H6C4.4087 0 2.88258 0.632141 1.75736 1.75736C0.632141 2.88258 0 4.4087 0 6C0 7.5913 0.632141 9.11742 1.75736 10.2426C2.88258 11.3679 4.4087 12 6 12H8C8.26522 12 8.51957 11.8946 8.70711 11.7071C8.89464 11.5196 9 11.2652 9 11C9 10.7348 8.89464 10.4804 8.70711 10.2929C8.51957 10.1054 8.26522 10 8 10H6C4.93913 10 3.92172 9.57857 3.17157 8.82843C2.42143 8.07828 2 7.06087 2 6C2 4.93913 2.42143 3.92172 3.17157 3.17157C3.92172 2.42143 4.93913 2 6 2H9C9.26522 2 9.51957 2.10536 9.70711 2.29289C9.89464 2.48043 10 2.73478 10 3V5.5C10 5.76522 9.89464 6.01957 9.70711 6.20711C9.51957 6.39464 9.26522 6.5 9 6.5C9.00498 6.42008 9.00498 6.33992 9 6.26V5.74C9 5.14591 8.764 4.57616 8.34392 4.15608C7.92384 3.736 7.35409 3.5 6.76 3.5H6.24C5.64591 3.5 5.07616 3.736 4.65608 4.15608C4.236 4.57616 4 5.14591 4 5.74V6.26C4 6.85409 4.236 7.42384 4.65608 7.84392C5.07616 8.264 5.64591 8.5 6.24 8.5H9C9.79565 8.5 10.5587 8.18393 11.1213 7.62132C11.6839 7.05871 12 6.29565 12 5.5V3C12 2.20435 11.6839 1.44129 11.1213 0.87868C10.5587 0.31607 9.79565 0 9 0V0ZM6 5.5H7V6.5H6V5.5Z"></path>
        <path id="pin-tiny" d="M7 6H5V2h2v4zm3 0H9V2h1a1 1 0 1 0 0-2H2a1 1 0 1 0 0 2h1v4H2a1 1 0 1 0 0 2h3v3a1 1 0 1 0 2 0V8h3a1 1 0 1 0 0-2z"></path>
        <path id="reply-small" d="M17 18a1 1 0 0 1-1-1c0-4.963-4.037-9-9-9H3.414l4.293 4.293a.999.999 0 1 1-1.414 1.414l-6-6A.993.993 0 0 1 0 7.003v-.006a.988.988 0 0 1 .293-.704l6-6a.999.999 0 1 1 1.414 1.414L3.414 6H7c6.065 0 11 4.935 11 11a1 1 0 0 1-1 1"></path>
        <path id="reply-tiny" d="M4.998 4H3.412l2.293-2.293A.999.999 0 1 0 4.291.293l-3.999 4a1 1 0 0 0 0 1.415l3.999 4a.997.997 0 0 0 1.414 0 .999.999 0 0 0 0-1.415L3.412 6h1.586c2.757 0 5 2.243 5 5a1 1 0 1 0 2 0c0-3.86-3.141-7-7-7"></path>
        <path id="sound-small" d="M7 13.587l-2.293-2.293A1.002 1.002 0 0 0 4 11H2V7h2c.265 0 .52-.105.707-.293L7 4.415v9.172zm1.383-12.51c.373.155.617.52.617.924v14a1 1 0 0 1-1.707.707L3.586 13H1a1 1 0 0 1-1-1V6a1 1 0 0 1 1-1h2.586l3.707-3.707a.996.996 0 0 1 1.09-.217zm4.837 4.488c.518 1.07.78 2.227.78 3.436a7.818 7.818 0 0 1-.78 3.435 1 1 0 1 1-1.8-.87c.384-.798.58-1.66.58-2.565s-.196-1.768-.58-2.565a1 1 0 0 1 1.8-.87zm2.041-4.201a12.013 12.013 0 0 1 0 15.273.993.993 0 0 1-.77.364 1 1 0 0 1-.771-1.637A10.007 10.007 0 0 0 16 9.001c0-2.324-.81-4.583-2.28-6.364a1.002 1.002 0 0 1 .134-1.408 1 1 0 0 1 1.407.135z"></path>
        <path id="user-small" d="M9 3c-1.103 0-2 .897-2 2s.897 2 2 2 2-.897 2-2-.897-2-2-2m0 6C6.794 9 5 7.206 5 5s1.794-4 4-4 4 1.794 4 4-1.794 4-4 4m5 8a1 1 0 0 1-1-1c0-2.206-1.794-4-4-4s-4 1.794-4 4a1 1 0 1 1-2 0c0-3.309 2.691-6 6-6s6 2.691 6 6a1 1 0 0 1-1 1"></path>
        <path id="users-small" d="M6 8c1.103 0 2-.897 2-2s-.897-2-2-2-2 .897-2 2 .897 2 2 2m0 2c-3.309 0-6 2.691-6 6a1 1 0 1 0 2 0c0-2.206 1.794-4 4-4s4 1.794 4 4a1 1 0 1 0 2 0c0-3.309-2.691-6-6-6m6-5c1.103 0 2-.897 2-2s-.897-2-2-2-2 .897-2 2 .897 2 2 2m0 2a1 1 0 1 0 0 2c2.206 0 4 1.794 4 4a1 1 0 1 0 2 0c0-3.309-2.691-6-6-6"></path>
        <path id="arrow-small" d="M8 17a.997.997 0 0 1-.707-.293l-7-7A.983.983 0 0 1 0 9.003v-.006a.988.988 0 0 1 .293-.704l7-7a.999.999 0 1 1 1.414 1.414L3.414 8H17a1 1 0 1 1 0 2H3.414l5.293 5.293A.999.999 0 0 1 8 17"></path>
        <path id="close-a" d="M22.083 23a.914.914 0 0 1-.648-.269l-9.485-9.485-9.385 9.385a.917.917 0 0 1-1.296-1.297l9.384-9.384L1.37 2.666a.917.917 0 0 1 1.297-1.297l9.284 9.283 9.384-9.383a.916.916 0 1 1 1.297 1.296l-9.385 9.385 9.485 9.485A.916.916 0 0 1 22.083 23"></path>
        <path id="bulleted-list-small" d="M16 14a1 1 0 1 1 0 2H6a1 1 0 1 1 0-2h10zm0-6a1 1 0 1 1 0 2H6a1 1 0 1 1 0-2h10zM6 4a1 1 0 1 1 0-2h10a1 1 0 1 1 0 2H6zM2.38 14.08c.12.05.229.12.33.21.18.19.29.45.29.71 0 .26-.11.52-.29.71-.101.09-.21.16-.33.21-.12.05-.25.08-.38.08-.26 0-.52-.11-.71-.29A1.049 1.049 0 0 1 1 15c0-.26.109-.52.29-.71a.998.998 0 0 1 1.09-.21zm0-6c.12.05.229.12.33.21.18.19.29.45.29.71 0 .07-.01.13-.02.2a.631.631 0 0 1-.06.18.568.568 0 0 1-.09.17c-.04.06-.08.11-.12.16-.101.09-.21.16-.33.21-.12.05-.25.08-.38.08-.26 0-.52-.11-.71-.29-.04-.05-.09-.1-.12-.16a.568.568 0 0 1-.09-.17.631.631 0 0 1-.06-.18C1.01 9.13 1 9.07 1 9c0-.26.109-.52.29-.71a.998.998 0 0 1 1.09-.21zm0-6c.12.05.229.12.33.21.18.19.29.45.29.71 0 .26-.11.52-.29.71-.101.09-.21.16-.33.21-.12.05-.25.08-.38.08-.26 0-.52-.11-.71-.29A1.049 1.049 0 0 1 1 3c0-.26.109-.52.29-.71.279-.28.73-.37 1.09-.21z"></path>
        <path id="bulleted-list-tiny" d="M1.29 9.277c-.181.19-.29.45-.29.71 0 .26.109.52.29.71.189.18.45.29.71.29.26 0 .519-.11.71-.29.18-.19.29-.45.29-.71 0-.26-.11-.52-.29-.71-.38-.37-1.05-.37-1.42 0M10 9H6a1 1 0 1 0 0 2h4a1 1 0 1 0 0-2M6 3h4a1 1 0 1 0 0-2H6a1 1 0 1 0 0 2m4 2H6a1 1 0 1 0 0 2h4a1 1 0 1 0 0-2M1.29 1.277c.37-.37 1.04-.37 1.42 0 .18.19.29.45.29.71 0 .26-.11.52-.29.71-.191.18-.45.29-.71.29-.26 0-.521-.11-.71-.29-.181-.19-.29-.45-.29-.71 0-.26.109-.52.29-.71zM2.55 5.17c.06.03.11.08.16.12.18.19.29.45.29.71 0 .26-.11.521-.29.71-.05.04-.1.09-.16.12a.559.559 0 0 1-.17.09c-.06.03-.12.05-.19.06-.06.01-.13.02-.19.02-.26 0-.52-.11-.71-.29A1.05 1.05 0 0 1 1 6c0-.26.11-.52.29-.71.24-.23.58-.34.9-.269a.6.6 0 0 1 .19.058c.06.021.12.051.17.091z"></path>
        <path id="zoom-in-small" d="M16 2a1 1 0 0 1 1 1v3a1 1 0 1 1-2 0V4h-2a1 1 0 1 1 0-2h3zM5 2a1 1 0 1 1 0 2H3v2a1 1 0 1 1-2 0V3a1 1 0 0 1 1-1h3zm0 12a1 1 0 1 1 0 2H2a1 1 0 0 1-1-1v-3a1 1 0 1 1 2 0v2h2zm11-3a1 1 0 0 1 1 1v3a1 1 0 0 1-1 1h-3a1 1 0 1 1 0-2h2v-2a1 1 0 0 1 1-1z"></path>
        <path id="zoom-out-small" d="M16 11a1 1 0 1 1 0 2h-2v2a1 1 0 1 1-2 0v-3a1 1 0 0 1 1-1h3zM5 2a1 1 0 0 1 1 1v3a1 1 0 0 1-1 1H2a1 1 0 1 1 0-2h2V3a1 1 0 0 1 1-1zm0 9a1 1 0 0 1 1 1v3a1 1 0 1 1-2 0v-2H2a1 1 0 1 1 0-2h3zm8-4a1 1 0 0 1-1-1V3a1 1 0 1 1 2 0v2h2a1 1 0 1 1 0 2h-3z"></path>
        <path id="pin-a" d="M12 14h4V3H8v11h4zm0 9a1 1 0 0 1-1-1v-6H4a1 1 0 1 1 0-2h2V3H4a1 1 0 1 1 0-2h16a1 1 0 1 1 0 2h-2v11h2a1 1 0 1 1 0 2h-7v6a1 1 0 0 1-1 1z"></path>
        <path id="share-a" d="M19,22 C17.346,22 16,20.654 16,19 C16,18.552 16.099,18.126 16.276,17.744 C16.293,17.716 16.31,17.687 16.325,17.656 C16.339,17.628 16.352,17.6 16.363,17.57 C16.872,16.636 17.863,16 19,16 C20.654,16 22,17.346 22,19 C22,20.654 20.654,22 19,22 M7.724,13.256 C7.707,13.284 7.69,13.313 7.675,13.344 C7.661,13.372 7.648,13.4 7.637,13.43 C7.128,14.364 6.137,15 5,15 C3.346,15 2,13.654 2,12 C2,10.346 3.346,9 5,9 C6.137,9 7.128,9.636 7.637,10.57 C7.648,10.6 7.661,10.628 7.675,10.656 C7.69,10.687 7.707,10.716 7.724,10.744 C7.901,11.126 8,11.552 8,12 C8,12.448 7.901,12.874 7.724,13.256 M19,2 C20.654,2 22,3.346 22,5 C22,6.654 20.654,8 19,8 C17.863,8 16.872,7.364 16.363,6.43 C16.352,6.4 16.339,6.372 16.325,6.344 C16.31,6.313 16.293,6.284 16.276,6.256 C16.099,5.874 16,5.448 16,5 C16,3.346 17.346,2 19,2 M19,14 C17.407,14 15.986,14.749 15.069,15.912 L9.829,13.301 C9.94,12.885 10,12.449 10,12 C10,11.551 9.94,11.115 9.829,10.699 L15.069,8.088 C15.986,9.251 17.407,10 19,10 C21.757,10 24,7.757 24,5 C24,2.243 21.757,0 19,0 C16.243,0 14,2.243 14,5 C14,5.449 14.06,5.885 14.171,6.301 L8.931,8.912 C8.014,7.749 6.593,7 5,7 C2.243,7 0,9.243 0,12 C0,14.757 2.243,17 5,17 C6.593,17 8.014,16.251 8.931,15.088 L14.171,17.699 C14.06,18.115 14,18.551 14,19 C14,21.757 16.243,24 19,24 C21.757,24 24,21.757 24,19 C24,16.243 21.757,14 19,14"></path>
        <path id="more-a" d="M12 18c-1.654 0-3 1.346-3 3s1.346 3 3 3 3-1.346 3-3-1.346-3-3-3m0-12c1.654 0 3-1.346 3-3s-1.346-3-3-3-3 1.346-3 3 1.346 3 3 3m0 3c-1.654 0-3 1.346-3 3s1.346 3 3 3 3-1.346 3-3-1.346-3-3-3"></path>
        <path id="lock-a" d="M10 15h1v3a1 1 0 1 0 2 0v-3h1a1 1 0 1 0 0-2h-4a1 1 0 1 0 0 2m-5 7h14V10H5v12zM9 5c0-1.654 1.346-3 3-3s3 1.346 3 3v3H9V5zm11 3h-3V5c0-2.757-2.243-5-5-5S7 2.243 7 5v3H4a1 1 0 0 0-1 1v14a1 1 0 0 0 1 1h16a1 1 0 0 0 1-1V9a1 1 0 0 0-1-1z"></path>
        <path id="unlock-a" d="M10 15h1v3a1 1 0 1 0 2 0v-3h1a1 1 0 1 0 0-2h-4a1 1 0 1 0 0 2m-5 7h14V10H5v12zM20 8H9V5c0-1.654 1.346-3 3-3 .795 0 1.551.313 2.128.882a1 1 0 1 0 1.404-1.424A5.006 5.006 0 0 0 12 0C9.243 0 7 2.243 7 5v3H4a1 1 0 0 0-1 1v14a1 1 0 0 0 1 1h16a1 1 0 0 0 1-1V9a1 1 0 0 0-1-1z"></path>
        <path id="arrow-a" d="M23 11H3.414l7.293-7.293a.999.999 0 1 0-1.414-1.414l-9 9a.983.983 0 0 0-.293.704v.006a.988.988 0 0 0 .293.704l9 9a.997.997 0 0 0 1.414 0 .999.999 0 0 0 0-1.414L3.414 13H23a1 1 0 1 0 0-2"></path>
        <path id="question-a" d="M12 22C6.486 22 2 17.514 2 12S6.486 2 12 2s10 4.486 10 10-4.486 10-10 10m0-22C5.383 0 0 5.383 0 12s5.383 12 12 12 12-5.383 12-12S18.617 0 12 0m0 5a4.007 4.007 0 0 0-3.771 2.666.998.998 0 1 0 1.884.668A2.001 2.001 0 0 1 14 9c0 1.104-.897 2-2 2a1 1 0 0 0-1 1v2a1 1 0 1 0 2 0v-1.127A4.006 4.006 0 0 0 16 9c0-2.205-1.794-4-4-4m-.005 11.99a1.01 1.01 0 0 0-1.006 1.005A1.01 1.01 0 0 0 11.995 19c.553 0 1.005-.453 1.005-1.005 0-.552-.452-1.005-1.005-1.005"></path>
        <path id="facebook-a" d="M16.762 5.432h-1.786c-1.428 0-1.666.71-1.666 1.657v2.248h3.452l-.357 3.55h-2.857V22H9.976v-9.112H7v-3.55h2.976V6.733C9.976 3.775 11.762 2 14.381 2c1.19 0 2.262.118 2.619.118v3.314h-.238z"></path>
        <path id="twitter-a" d="M20.681 7.328v.577c0 5.915-4.486 12.695-12.735 12.695-2.605 0-4.92-.721-6.946-2.02.434 0 .724.145 1.158.145 2.026 0 4.052-.722 5.644-1.876-1.882 0-3.618-1.298-4.197-3.174.29 0 .579.145.868.145.434 0 .434 0 1.013-.145-2.17-.432-4.052-2.308-4.052-4.472 0 .433 1.592.433 2.316.577-1.158-.865-1.882-2.164-1.882-3.75 0-.866.29-1.587.724-2.309 2.17 2.741 5.644 4.472 9.261 4.761-.144-.433-.144-.721-.144-1.01C11.709 5.02 13.735 3 16.195 3c1.302 0 2.46.433 3.328 1.443 1.013-.289 1.882-.577 2.75-1.154-.434 1.154-1.158 1.875-1.881 2.452a13.73 13.73 0 0 0 2.604-.721c-.723.865-1.447 1.73-2.315 2.308z"></path>
        <path id="reddit-a" d="M21.334 13.023c.359-.283.538-.671.538-1.166 0-.354-.112-.663-.342-.928a1.111 1.111 0 0 0-.882-.398 1.17 1.17 0 0 0-.734.268 5.004 5.004 0 0 1 1.42 2.224m-2.572-9.275a.97.97 0 0 0-.222.638c0 .247.076.458.222.635a.697.697 0 0 0 .562.265c.23 0 .426-.088.59-.265a.904.904 0 0 0 .244-.635.908.908 0 0 0-.244-.638.773.773 0 0 0-.59-.264.697.697 0 0 0-.562.264M14.156 15.09c.31.319.677.477 1.102.477.424 0 .793-.158 1.102-.477.311-.319.466-.724.466-1.219 0-.46-.146-.848-.44-1.167-.294-.316-.67-.476-1.128-.476-.458 0-.832.16-1.127.476-.295.32-.44.708-.44 1.167 0 .495.153.9.465 1.219m-2.18 4.716c1.568 0 2.84-.529 3.822-1.589l-.638-.635c-.815.848-1.878 1.27-3.184 1.27a4.38 4.38 0 0 1-1.666-.319c-.523-.21-.9-.422-1.128-.635l-.343-.316-.637.635c.98 1.06 2.237 1.59 3.774 1.59M7.221 13.87c0 .495.157.9.467 1.219.309.319.677.477 1.102.477a1.49 1.49 0 0 0 1.104-.477c.308-.319.463-.724.463-1.219 0-.46-.145-.848-.44-1.167-.293-.316-.67-.476-1.127-.476-.457 0-.832.16-1.128.476-.292.32-.44.708-.44 1.167m-4.556-.9c.262-.814.734-1.537 1.42-2.172a1.167 1.167 0 0 0-.734-.268c-.326 0-.613.133-.858.398a1.316 1.316 0 0 0-.367.928c0 .53.18.902.539 1.114M23 11.911c0 1.094-.44 1.89-1.324 2.383.034.179.05.425.05.744 0 2.013-.955 3.735-2.866 5.167-1.91 1.43-4.206 2.145-6.884 2.145s-4.965-.708-6.86-2.121c-1.896-1.412-2.843-3.125-2.843-5.14 0-.352.017-.616.05-.795C1.44 13.801 1 13.004 1 11.91c0-.74.245-1.37.733-1.88.492-.513 1.063-.77 1.717-.77.588 0 1.127.229 1.616.69C6.864 8.607 8.97 7.884 11.39 7.778h.096l1.52-5.459 4.409.952C17.87 2.423 18.509 2 19.324 2h.05c.621 0 1.135.231 1.543.69.408.459.613 1.024.613 1.696 0 .67-.205 1.236-.613 1.696a1.975 1.975 0 0 1-1.542.687h-.05c-.555 0-1.046-.203-1.47-.608a2.186 2.186 0 0 1-.686-1.51l-3.283-.743-1.078 3.921c2.484.177 4.524.885 6.126 2.121.488-.461 1.045-.69 1.665-.69.653 0 1.218.257 1.69.77.474.51.711 1.14.711 1.88"></path>
        <path id="book-tiny" d="M3.5 3C2.673 3 2 3.673 2 4.5v2.338c.91-.434 2.09-.434 3 0V4.5c0-.397-.159-.785-.437-1.063A1.513 1.513 0 0 0 3.5 3m5 3.5c.537 0 1.045.121 1.5.338V4.5c0-.397-.159-.785-.437-1.063A1.502 1.502 0 0 0 7 4.5v2.338A3.473 3.473 0 0 1 8.5 6.5M11 11a1 1 0 0 1-1-1c0-.827-.673-1.5-1.5-1.5S7 9.173 7 10a1 1 0 1 1-2 0c0-.827-.673-1.5-1.5-1.5S2 9.173 2 10a1 1 0 1 1-2 0V4.5a3.504 3.504 0 0 1 5.977-2.477l.026.027A3.489 3.489 0 0 1 8.5 1c.937 0 1.817.363 2.477 1.023A3.524 3.524 0 0 1 12 4.5V10a1 1 0 0 1-1 1"></path>
        <path id="dropdown-tiny-a" d="M6.0001895,8.80004571 C5.79538755,8.80004571 5.5905856,8.72164496 5.43458411,8.56564348 L2.23455364,5.365613 C2.00575146,5.13681083 1.93695081,4.79280755 2.06095199,4.4936047 C2.18415316,4.19440185 2.47695595,4 2.80015903,4 L9.20021997,4 C9.52342305,4 9.81542583,4.19440185 9.93942701,4.4936047 C10.0634282,4.79280755 9.99462754,5.13681083 9.76582536,5.365613 L6.56579489,8.56564348 C6.4097934,8.72164496 6.20499145,8.80004571 6.0001895,8.80004571 Z"></path>
        <path id="home-tiny" d="M9 10h1V6.414l-4-4-4 4V10h1V9c0-1.654 1.346-3 3-3s3 1.346 3 3v1zm2 2H8a1 1 0 0 1-1-1V9c0-.55-.449-1-1-1-.551 0-1 .45-1 1v2a1 1 0 0 1-1 1H1a1 1 0 0 1-1-1V6c0-.265.105-.52.293-.707l5-5a.999.999 0 0 1 1.414 0l5 5A.997.997 0 0 1 12 6v5a1 1 0 0 1-1 1z"></path>
        <path id="activity-small" d="M12 17a1 1 0 0 1-.919-.605L6 4.539 3.919 9.395A1 1 0 0 1 3 10H1a1 1 0 1 1 0-2h1.341l2.74-6.395a1 1 0 0 1 1.838 0L12 13.461l2.081-4.856A1 1 0 0 1 15 8h2a1 1 0 1 1 0 2h-1.341l-2.74 6.395A1 1 0 0 1 12 17"></path>
        <path id="more-small" d="M9 5c1.103 0 2-.896 2-2s-.897-2-2-2-2 .896-2 2 .897 2 2 2m0 8c-1.103 0-2 .896-2 2s.897 2 2 2 2-.896 2-2-.897-2-2-2m0-6c-1.103 0-2 .896-2 2s.897 2 2 2 2-.896 2-2-.897-2-2-2"></path>
        <path id="activity-tiny" d="M8 12.001a.87.87 0 0 1-.349-.063l-.002-.001a.365.365 0 0 1-.035-.014l-.002-.001a.986.986 0 0 1-.541-.55L3.993 3.676 2.988 6.149A.999.999 0 0 1 2 7h-.008a.352.352 0 0 1-.046 0H1a1 1 0 1 1 0-2h.296L3.072.626l.005-.011V.613A.996.996 0 0 1 4.005 0c.114.001.23.021.343.063h.002l.035.014a.986.986 0 0 1 .543.552l3.078 7.696 1.005-2.473A1 1 0 0 1 10 5h1a1 1 0 0 1 0 2h-.297l-1.776 4.375-.005.011v.001a1.005 1.005 0 0 1-.922.614"></path>
        <path id="pages-tiny" d="M3 10h3V5H3v5zm4-7a1 1 0 0 1 1 1v7a1 1 0 0 1-1 1H2a1 1 0 0 1-1-1V4a1 1 0 0 1 1-1h5zm3-3a1 1 0 0 1 1 1v7a1 1 0 1 1-2 0V2H5a1 1 0 1 1 0-2h5z"></path>
        <path id="pencil-tiny" d="M8.5 6.086L5.914 3.5 7 2.414 9.586 5 8.5 6.086zM4.586 10H2V7.414l2.5-2.5L7.086 7.5l-2.5 2.5zm7.121-5.707l-4-4a.999.999 0 0 0-1.414 0l-6 6A1 1 0 0 0 0 7v4a1 1 0 0 0 1 1h4c.265 0 .52-.105.707-.293l6-6a.999.999 0 0 0 0-1.414z"></path>
        <path id="trash-tiny" d="M10 4a1 1 0 0 1 1 1v6a1 1 0 0 1-1 1H2a1 1 0 0 1-1-1V5a1 1 0 0 1 2 0v5h2V5a1 1 0 0 1 2 0v5h2V5a1 1 0 0 1 1-1zm1-3a1 1 0 0 1 0 2H1a1 1 0 0 1 0-2h3a1 1 0 0 1 1-1h2a1 1 0 0 1 1 1h3z"></path>
        <path id="gripper-tiny" d="M3 0a1 1 0 0 1 1 1v10a1 1 0 1 1-2 0V1a1 1 0 0 1 1-1zm6 0a1 1 0 0 1 1 1v10a1 1 0 1 1-2 0V1a1 1 0 0 1 1-1z"></path>
        <path id="alert-tiny" d="M7 9.993c0-.554-.447-1.004-1-1.004-.553 0-1 .45-1 1.004H2.618L6 3.203l3.382 6.79H7zm4.895.555L6.895.51c-.34-.68-1.45-.68-1.79 0l-5 10.038A1.002 1.002 0 0 0 1 12h10a1.002 1.002 0 0 0 .895-1.452zM5 5.978V6.98c0 .554.447 1.004 1 1.004.553 0 1-.45 1-1.004V5.978c0-.554-.447-1.004-1-1.004-.553 0-1 .45-1 1.004"></path>
    </defs>

    <symbol id="wds-icons-g-meet" viewBox="0 0 50 50">
        <use xlink:href="#g-Meet" fill-rule="evenodd"></use>
    </symbol>

    <symbol id="wds-icons-g-drive" viewBox="0 0 512 512">
        <use xlink:href="#g-Drive" fill-rule="evenodd"></use>
    </symbol>

    <symbol id="wds-icons-tele" viewBox="0 0 24 24">
        <use xlink:href="#Tele" fill-rule="evenodd"></use>
    </symbol>

    <symbol id="wds-icons-bookyy" viewBox="0 0 24 24">
        <use xlink:href="#bookyyy" fill-rule="evenodd"></use>
    </symbol>

    <symbol id="wds-icons-link-tiny" viewBox="0 0 12 12">
        <use xlink:href="#link-tiny" fill-rule="evenodd"></use>
    </symbol>

    <symbol id="wds-icons-add-small" viewBox="0 0 18 18">
        <use xlink:href="#add-small" fill-rule="evenodd"></use>
    </symbol>

    <symbol id="wds-icons-pencil-small" viewBox="0 0 18 18">
        <use xlink:href="#pencil-small" fill-rule="evenodd"></use>
    </symbol>
    
    <symbol id="wds-icons-link-small" viewBox="0 0 18 18">
        <use xlink:href="#link-small" fill-rule="evenodd"></use>
    </symbol>
    
    <symbol id="wds-icons-menu-control-tiny" viewBox="0 0 12 12">
        <path fill-rule="evenodd" d="M11.707 3.293a.999.999 0 0 0-1.414 0L6 7.586 1.707 3.293A.999.999 0 1 0 .293 4.707l5 5a.997.997 0 0 0 1.414 0l5-5a.999.999 0 0 0 0-1.414"></path>
    </symbol>
    
    <symbol id="wds-icons-close-small" viewBox="0 0 18 18">
        <use xlink:href="#close-small" fill-rule="evenodd"></use>
    </symbol>
    
    <symbol id="wds-icons-flag-small" viewBox="0 0 18 18">
        <use xlink:href="#flag-small" fill-rule="evenodd"></use>
    </symbol>
    
    <symbol id="wds-icons-checkmark-small" viewBox="0 0 18 18">
        <path fill-rule="evenodd" d="M6 16a.997.997 0 0 1-.707-.293l-5-5a.999.999 0 1 1 1.414-1.414L6 13.586 16.293 3.293a.999.999 0 1 1 1.414 1.414l-11 11A.997.997 0 0 1 6 16"></path>
    </symbol>
    
    <symbol id="wds-icons-error-small" viewBox="0 0 18 18">
        <path fill-rule="evenodd" d="M11.0487656,5.33462857 C11.494971,4.88845714 12.2191405,4.88845714 12.6653459,5.33462857 C13.1115514,5.7808 13.1115514,6.50491429 12.6653459,6.95108571 L10.6171899,9.00030476 L12.6653459,11.0483048 C13.1115514,11.4956952 13.1115514,12.2185905 12.6653459,12.665981 C12.4422432,12.8878476 12.1496495,13 11.8570558,13 C11.5644621,13 11.2718683,12.8878476 11.0487656,12.665981 L8.99939043,10.6167619 L6.95123438,12.665981 C6.72813167,12.8878476 6.43431881,13 6.14294422,13 C5.8503505,13 5.55775678,12.8878476 5.33465407,12.665981 C4.88844864,12.2185905 4.88844864,11.4956952 5.33465407,11.0483048 L7.38281012,9.00030476 L5.33465407,6.95108571 C4.88844864,6.50491429 4.88844864,5.7808 5.33465407,5.33462857 C5.78085949,4.88845714 6.50380981,4.88845714 6.95123438,5.33462857 L8.99939043,7.38384762 L11.0487656,5.33462857 Z M16,11.8986667 L16,6.10026667 L11.8997333,2 L6.10026667,2 L2,6.10026667 L2,11.8986667 L6.10026667,16 L11.8997333,16 L16,11.8986667 Z M17.7077333,4.9792 C17.8944,5.16586667 18,5.4208 18,5.6864 L18,12.3136 C18,12.5792 17.8944,12.8330667 17.7077333,13.0208 L13.0208,17.7066667 C12.8330667,17.8944 12.5781333,18 12.3136,18 L5.6864,18 C5.42186667,18 5.16693333,17.8944 4.9792,17.7066667 L0.292266667,13.0208 C0.1056,12.8330667 0,12.5792 0,12.3136 L0,5.6864 C0,5.4208 0.1056,5.16586667 0.292266667,4.9792 L4.9792,0.292266667 C5.16693333,0.104533333 5.42186667,0 5.6864,0 L12.3136,0 C12.5781333,0 12.8330667,0.104533333 13.0208,0.292266667 L17.7077333,4.9792 Z"></path>
    </symbol>
    
    <symbol id="wds-icons-alert-small" viewBox="0 0 18 18">
        <use xlink:href="#alert-small" fill-rule="evenodd"></use>
    </symbol>
    
    <symbol id="wds-icons-close-tiny" viewBox="0 0 12 12">
        <use xlink:href="#close-tiny" fill-rule="evenodd"></use>
    </symbol>
    
    <symbol id="wds-icons-arrow-tiny" viewBox="0 0 12 12">
        <use xlink:href="#aarow-tiny" fill-rule="evenodd"></use>
    </symbol>
    
    <symbol id="wds-player-icon-play" viewBox="0 0 180 180">
        <g fill="none" fill-rule="evenodd">
            <g opacity=".9" transform="rotate(90 75 90)">
                <use xlink:href="#b" fill="#000" filter="url(#a)"></use>
                <use xlink:href="#b" fill="#FFF"></use>
            </g>
            <path fill="#fa005a" fill-rule="nonzero" d="M80.87 58.006l34.32 25.523c3.052 2.27 3.722 6.633 1.496 9.746a6.91 6.91 0 0 1-1.497 1.527l-34.32 25.523c-3.053 2.27-7.33 1.586-9.558-1.527A7.07 7.07 0 0 1 70 114.69V63.643c0-3.854 3.063-6.977 6.84-6.977 1.45 0 2.86.47 4.03 1.34z"></path>
        </g>
    </symbol>
    
    <symbol id="wds-icons-gear-small" viewBox="0 0 18 18">
        <path d="M9 10a1.001 1.001 0 0 1 0-2 1.001 1.001 0 0 1 0 2m0-4C7.346 6 6 7.346 6 9s1.346 3 3 3 3-1.346 3-3-1.346-3-3-3m0 8c-2.757 0-5-2.243-5-5s2.243-5 5-5 5 2.243 5 5-2.243 5-5 5m8-6h-1.071a6.959 6.959 0 0 0-1.325-3.189l.76-.76a1 1 0 1 0-1.414-1.415l-.76.76A6.962 6.962 0 0 0 10 2.071V1a1 1 0 1 0-2 0v1.071a6.962 6.962 0 0 0-3.19 1.325l-.76-.76a1 1 0 0 0-1.414 1.415l.76.76A6.959 6.959 0 0 0 2.071 8H1a1 1 0 1 0 0 2h1.071a6.959 6.959 0 0 0 1.325 3.189l-.76.76a1 1 0 1 0 1.414 1.415l.76-.76A6.962 6.962 0 0 0 8 15.929V17a1 1 0 1 0 2 0v-1.071a6.962 6.962 0 0 0 3.19-1.325l.76.76a1 1 0 0 0 1.414-1.415l-.76-.76A6.959 6.959 0 0 0 15.929 10H17a1 1 0 1 0 0-2"></path>
    </symbol>
    
    <symbol id="wds-icons-magnifying-glass-small" viewBox="0 0 18 18">
        <path fill-rule="evenodd" d="M11.563 11.504l-.03.029-.03.031A4.984 4.984 0 0 1 8 13c-2.757 0-5-2.243-5-5s2.243-5 5-5c2.756 0 5 2.243 5 5a4.983 4.983 0 0 1-1.437 3.504m5.144 3.789l-3.103-3.103A6.963 6.963 0 0 0 15 8c0-3.859-3.141-7-7-7-3.86 0-7 3.141-7 7s3.14 7 7 7a6.956 6.956 0 0 0 4.189-1.396l3.103 3.103a1.001 1.001 0 0 0 1.415-1.414"></path>
    </symbol>
    
    <symbol id="wds-icons-facebook-small" viewBox="0 0 18 18">
        <use xlink:href="#facebook-small" fill-rule="evenodd"></use>
    </symbol>
    
    <symbol id="wds-icons-reddit-small" viewBox="0 0 18 18">
        <use xlink:href="#reddit-small" fill-rule="evenodd"></use>
    </symbol>
    
    <symbol id="wds-icons-twitter-small" viewBox="0 0 18 18">
        <use xlink:href="#twitter-small" fill-rule="evenodd"></use>
    </symbol>
    
    <symbol id="wds-icons-bell" viewBox="0 0 24 24">
        <use xlink:href="#bell-a" fill-rule="evenodd"></use>
    </symbol>
    
    <symbol id="wds-icons-bubble-small" viewBox="0 0 18 18">
        <use xlink:href="#bubble-small" fill-rule="evenodd"></use>
    </symbol>
    
    <symbol id="wds-icons-bubble-tiny" viewBox="0 0 12 12">
        <use xlink:href="#bubble-tiny" fill-rule="evenodd"></use>
    </symbol>
    
    <symbol id="wds-icons-clock-small" viewBox="0 0 18 18">
        <path d="M9 16c-3.859 0-7-3.141-7-7s3.141-7 7-7 7 3.141 7 7-3.141 7-7 7M9 0C4.037 0 0 4.037 0 9s4.037 9 9 9 9-4.037 9-9-4.037-9-9-9m4 8h-3V5a1 1 0 1 0-2 0v4a1 1 0 0 0 1 1h4a1 1 0 1 0 0-2"></path>
    </symbol>
    
    <symbol id="wds-icons-comment-small" viewBox="0 0 18 18">
        <use xlink:href="#comment-small" fill-rule="evenodd"></use>
    </symbol>
    
    <symbol id="wds-icons-comment-tiny" viewBox="0 0 12 12">
        <use xlink:href="#comment-tiny" fill-rule="evenodd"></use>
    </symbol>
    
    <symbol id="wds-icons-flag-tiny" viewBox="0 0 12 12">
        <use xlink:href="#flag-tiny" fill-rule="evenodd"></use>
    </symbol>
    
    <symbol id="wds-icons-heart-small" viewBox="0 0 18 18">
        <path fill-rule="evenodd" d="M4.99638199,3 C4.19438199,3 3.44138199,3.312 2.87738199,3.877 C1.70838199,5.048 1.70838199,6.952 2.87738199,8.123 L9.00138199,14.551 L15.108382,8.141 C16.294382,6.952 16.294382,5.048 15.125382,3.877 C13.996382,2.745 12.016382,2.745 10.887382,3.877 L9.70838199,5.057 C9.33338199,5.432 8.66838199,5.432 8.29338199,5.057 L7.11538199,3.877 C6.55038199,3.312 5.79838199,3 4.99638199,3 M9.00138199,17 C8.72738199,17 8.46638199,16.888 8.27738199,16.689 L1.44538199,9.52 C-0.484618012,7.587 -0.484618012,4.413 1.46238199,2.463 C2.40438199,1.52 3.66038199,1 4.99638199,1 L4.99638199,1 C6.33338199,1 7.58838199,1.52 8.53038199,2.463 L9.00138199,2.935 L9.47238199,2.463 C10.414382,1.52 11.670382,1 13.006382,1 C14.342382,1 15.598382,1.52 16.540382,2.463 C18.487382,4.413 18.487382,7.587 16.540382,9.537 L9.72538199,16.689 C9.53638199,16.888 9.27438199,17 9.00138199,17"></path>
    </symbol>
    
    <symbol id="wds-icons-heart-tiny" viewBox="0 0 12 12">
        <path fill-rule="evenodd" d="M3.49900885,2.83521134 C3.09900885,2.83521134 2.72300885,2.97984474 2.44100885,3.24298422 C1.85500885,3.78979178 1.85500885,4.67998702 2.44000885,5.22586146 L6.00200885,8.71479229 L9.54800885,5.24172448 C10.1500088,4.67998702 10.1500088,3.78979178 9.56400885,3.24391734 C9.00000885,2.71577215 8.01100885,2.71670527 7.44700885,3.24298422 L6.71000885,3.93255894 C6.52200885,4.10705214 6.26800885,4.20596272 6.00200885,4.20596272 C5.73700885,4.20596272 5.48200885,4.10705214 5.29500885,3.93255894 L4.55900885,3.24391734 C4.27600885,2.97984474 3.90000885,2.83521134 3.49900885,2.83521134 M6.00200885,11 C5.72900885,11 5.46700885,10.8954907 5.27800885,10.7098001 L1.00900885,6.52849517 C-0.33899115,5.27065116 -0.33899115,3.19912764 1.02500885,1.92448749 C2.34500885,0.692770799 4.65300885,0.690904562 5.97400885,1.92448749 L6.00200885,1.95248105 L6.03200885,1.92448749 C7.35100885,0.691837681 9.66000885,0.691837681 10.9800088,1.92542061 C12.3440088,3.19912764 12.3440088,5.27065116 10.9790088,6.54529131 L6.72700885,10.7098001 C6.53800885,10.8954907 6.27600885,11 6.00200885,11"></path>
    </symbol>
    
    <symbol id="wds-icons-mention-small" viewBox="0 0 18 18">
        <use xlink:href="#mention-small" fill-rule="evenodd"></use>
    </symbol>
    
    <symbol id="wds-icons-mention-tiny" viewBox="0 0 12 12">
        <use xlink:href="#mention-tiny" fill-rule="evenodd"></use>
    </symbol>
    
    <symbol id="wds-icons-page-small" viewBox="0 0 18 18">
        <path d="M10 12v2.586L12.586 12H10zm-6 4h4v-5a1 1 0 0 1 1-1h5V2H4v14zm5 2H3a1 1 0 0 1-1-1V1a1 1 0 0 1 1-1h12a1 1 0 0 1 1 1v9.992c0 .043-.002.086-.007.128l-.001.003v.006a1.19 1.19 0 0 1-.023.119l-.001.002-.001.006-.001.002v.001a1 1 0 0 1-.254.444s-.002 0-.002.002h-.001l-.002.002-6 6-.003.004-.003.002-.001.001a1.003 1.003 0 0 1-.435.251h-.004a.885.885 0 0 1-.136.027h-.004c-.001.001.005.004-.004.001l-.003.001A1.088 1.088 0 0 1 9 18z"></path>
    </symbol>
    
    <symbol id="wds-icons-pin-tiny" viewBox="0 0 12 12">
        <use xlink:href="#pin-tiny" fill-rule="evenodd"></use>
    </symbol>
    
    <symbol id="wds-icons-reply-small" viewBox="0 0 18 18">
        <use xlink:href="#reply-small" fill-rule="evenodd"></use>
    </symbol>
    
    <symbol id="wds-icons-reply-tiny" viewBox="0 0 12 12">
        <use xlink:href="#reply-tiny" fill-rule="evenodd"></use>
    </symbol>
    
    <symbol id="wds-icons-sound-small" viewBox="0 0 18 18">
        <use xlink:href="#sound-small" fill-rule="evenodd"></use>
    </symbol>
    
    <symbol id="wds-icons-user-small" viewBox="0 0 18 18">
        <use xlink:href="#user-small" fill-rule="evenodd"></use>
    </symbol>
    
    <symbol id="wds-icons-users-small" viewBox="0 0 18 18">
        <use xlink:href="#users-small" fill-rule="evenodd"></use>
    </symbol>
    
    <symbol id="wds-icons-arrow-small" viewBox="0 0 18 18">
        <use xlink:href="#arrow-small"></use>
    </symbol>
    
    <symbol id="wds-icons-close" viewBox="0 0 24 24">
        <use xlink:href="#close-a" fill-rule="evenodd"></use>
    </symbol>
    
    <symbol id="wds-icons-wikis-tiny" viewBox="0 0 12 12">
        <path d="M10 1H8C7.73 1 7.48 1.11 7.29 1.29L6 2.59L4.71 1.29C4.52 1.11 4.27 1 4 1H2C0.9 1 0 1.9 0 3V8C0 9.1 0.9 10 2 10H3.59L5.3 11.71C5.31 11.72 5.32 11.72 5.33 11.73C5.42 11.81 5.51 11.88 5.62 11.93C5.74 11.97 5.87 12 6 12C6.13 12 6.26 11.97 6.38 11.92C6.49 11.87 6.59 11.8 6.67 11.72C6.68 11.71 6.69 11.71 6.7 11.7L8.41 10H10C11.1 10 12 9.1 12 8V3C12 1.9 11.1 1 10 1ZM4 8H2V3H3.59L5 4.41V8.58L4.71 8.29C4.52 8.11 4.27 8 4 8ZM10 8H8C7.73 8 7.48 8.11 7.29 8.29L7 8.59V4.41L8.41 3H10V8Z"></path>
    </symbol>
    
    <symbol id="wds-icons-bullet-list-small" viewBox="0 0 18 18">
        <use xlink:href="#bulleted-list-small" fill-rule="evenodd"></use>
    </symbol>
    
    <symbol id="wds-icons-bullet-list-tiny" viewBox="0 0 12 12">
        <use xlink:href="#bulleted-list-tiny" fill-rule="evenodd"></use>
    </symbol>
    
    <symbol id="wds-icons-zoom-in-small" viewBox="0 0 18 18">
        <use xlink:href="#zoom-in-small" fill-rule="evenodd"></use>
    </symbol>
    
    <symbol id="wds-icons-zoom-out-small" viewBox="0 0 18 18">
        <use xlink:href="#zoom-out-small" fill-rule="evenodd"></use>
    </symbol>
    
    <symbol id="wds-icons-menu-control-small" viewBox="0 0 18 18">
        <path fill-rule="evenodd" d="M17.707 4.293a.999.999 0 0 0-1.414 0L9 11.586 1.707 4.293A.999.999 0 1 0 .293 5.707l8 8a.997.997 0 0 0 1.414 0l8-8a.999.999 0 0 0 0-1.414"></path>
    </symbol>
    
    <symbol id="wds-icons-info-small" viewBox="0 0 18 18">
        <path d="M9 16C5.141 16 2 12.859 2 9C2 5.141 5.141 2 9 2C12.859 2 16 5.141 16 9C16 12.859 12.859 16 9 16M9 0C4.037 0 0 4.037 0 9C0 13.963 4.037 18 9 18C13.963 18 18 13.963 18 9C18 4.037 13.963 0 9 0" clip-rule="evenodd"></path>
        <path d="M8 12.9975V8.00982C8 7.45545 8.447 7.00735 9 7.00735 9.553 7.00735 10 7.45545 10 8.00982V12.9975C10 13.5519 9.553 14 9 14 8.447 14 8 13.5519 8 12.9975zM9.71 5.71419C9.66 5.75429 9.609 5.80541 9.55 5.83449 9.5 5.87459 9.439 5.90466 9.38 5.92471 9.319 5.95478 9.26 5.97584 9.189 5.98586 8.87 6.05603 8.52 5.94376 8.29 5.71419 8.2 5.61394 8.13 5.51369 8.08 5.38437 8.03 5.26307 8 5.13375 8 5.00243 8 4.74178 8.109 4.48214 8.29 4.29067 8.48 4.11022 8.73 3.99995 9 3.99995 9.06 3.99995 9.13 4.00998 9.189 4.02 9.26 4.03003 9.319 4.05108 9.38 4.08015 9.439 4.1002 9.5 4.13128 9.55 4.17037 9.609 4.21047 9.66 4.25057 9.71 4.29067 9.89 4.48214 10 4.74178 10 5.00243 10 5.13375 9.97 5.26307 9.92 5.38437 9.87 5.51369 9.8 5.62397 9.71 5.71419" clip-rule="evenodd"></path>
    </symbol>
    
    <symbol id="wds-icons-pin" viewBox="0 0 24 24">
        <use xlink:href="#pin-a" fill-rule="evenodd"></use>
    </symbol>
    
    <symbol id="wds-icons-share" viewBox="0 0 24 24">
        <use xlink:href="#share-a" fill-rule="evenodd"></use>
    </symbol>
    
    <symbol id="wds-icons-more" viewBox="0 0 24 24">
        <use xlink:href="#more-a" fill-rule="evenodd"></use>
    </symbol>
    
    <symbol id="wds-icons-lock" viewBox="0 0 24 24">
        <use xlink:href="#lock-a" fill-rule="evenodd"></use>
    </symbol>
    
    <symbol id="wds-icons-unlock" viewBox="0 0 24 24">
        <use xlink:href="#unlock-a" fill-rule="evenodd"></use>
    </symbol>
    
    <symbol id="wds-icons-arrow" viewBox="0 0 24 24">
        <use xlink:href="#arrow-a" fill-rule="evenodd"></use>
    </symbol>
    
    <symbol id="wds-icons-question" viewBox="0 0 24 24">
        <use xlink:href="#question-a" fill-rule="evenodd"></use>
    </symbol>
    
    <symbol id="wds-icons-line" viewBox="0 0 24 24">
        <path d="M21.727 10.908c0-4.37-4.428-7.925-9.87-7.925-5.441 0-9.869 3.555-9.869 7.925 0 3.918 3.511 7.2 8.254 7.82.321.068.759.21.87.481.1.247.065.633.031.883l-.14.836c-.043.247-.199.966.855.527 1.053-.44 5.683-3.312 7.753-5.67 1.43-1.553 2.116-3.128 2.116-4.877zm-13.732 2.6H6.033a.515.515 0 0 1-.517-.512V9.115c0-.282.232-.512.517-.512.286 0 .518.23.518.512v3.369h1.444c.285 0 .517.23.517.512a.515.515 0 0 1-.517.512zm2.028-.512a.515.515 0 0 1-.518.512.515.515 0 0 1-.517-.512V9.115c0-.282.232-.512.517-.512.286 0 .518.23.518.512v3.88zm4.72 0a.51.51 0 0 1-.518.512.523.523 0 0 1-.414-.205l-2.01-2.708v2.4a.515.515 0 0 1-.517.513.515.515 0 0 1-.517-.512V9.115a.512.512 0 0 1 .518-.512.52.52 0 0 1 .413.205l2.01 2.708V9.115c0-.282.232-.512.518-.512.285 0 .517.23.517.512v3.88zm3.173-2.453c.285 0 .518.23.518.513a.516.516 0 0 1-.518.512h-1.443v.916h1.443c.285 0 .518.23.518.512a.516.516 0 0 1-.518.512h-1.961a.516.516 0 0 1-.517-.512V9.115c0-.282.232-.512.517-.512h1.961c.285 0 .518.23.518.512a.515.515 0 0 1-.518.512h-1.443v.916h1.443z"></path>
    </symbol>
    
    <symbol id="wds-icons-vkontakte" viewBox="0 0 24 24">
        <path d="M8.169 7.816a1.17 1.17 0 0 1 .792-.65 5.11 5.11 0 0 1 1.037-.175 27.89 27.89 0 0 1 1.925-.025c.329.006.662.048.984.117.591.126.88.45.924 1.062.03.439.013.882-.003 1.322-.018.462-.064.924-.089 1.386a13.41 13.41 0 0 0-.024.981c.007.384.044.77.285 1.09.233.31.279.34.621.132.189-.115.348-.294.487-.472.964-1.23 1.699-2.59 2.26-4.052.054-.138.124-.27.179-.407.182-.446.528-.631.983-.633.414-.001.829.022 1.244.024.62.002 1.24-.012 1.861-.004.267.005.538.024.797.082.353.078.477.305.41.666-.094.508-.315.965-.567 1.407-.464.812-1.043 1.54-1.612 2.275a68.25 68.25 0 0 0-1.066 1.42 1.933 1.933 0 0 0-.191.345c-.229.504-.158.905.252 1.32.419.422.855.828 1.276 1.248.62.62 1.19 1.284 1.655 2.031.117.187.205.402.259.615.068.273-.05.5-.278.658-.265.187-.575.248-.884.251-.645.008-1.292-.013-1.937-.02-.326-.004-.653-.011-.976.067-.09.023-.2-.01-.296-.033-.618-.148-1.127-.489-1.587-.916-.454-.422-.833-.91-1.221-1.39-.14-.173-.3-.334-.478-.466a.989.989 0 0 0-.443-.189c-.321-.046-.577.107-.678.423-.083.263-.116.543-.155.82-.036.272-.037.55-.077.824-.075.517-.227.743-.878.859-.536.094-1.072.047-1.607-.001-.74-.069-1.468-.207-2.166-.472-1.063-.401-1.96-1.049-2.739-1.874-.822-.873-1.521-1.845-2.186-2.841-1-1.5-1.835-3.091-2.607-4.719-.217-.458-.452-.91-.565-1.41-.04-.178-.06-.36-.091-.539-.018-.107.016-.19.115-.223.21-.069.421-.17.634-.18.528-.026 1.057-.006 1.586-.01.44-.004.88-.019 1.319-.022.1-.001.2.02.3.034a.732.732 0 0 1 .572.41c.124.25.254.497.363.754a20.133 20.133 0 0 0 1.94 3.517c.16.233.32.47.503.684.1.118.237.217.376.285.23.113.435.048.54-.184a2.32 2.32 0 0 0 .204-.662c.13-.972.145-1.95.053-2.925a4.61 4.61 0 0 0-.126-.662c-.077-.312-.278-.525-.568-.652a38.53 38.53 0 0 1-.494-.222c-.05-.021-.095-.051-.147-.08"></path>
    </symbol>
    
    <symbol id="wds-icons-facebook" viewBox="0 0 24 24">
        <use xlink:href="#facebook-a" fill-rule="evenodd"></use>
    </symbol>
    
    <symbol id="wds-icons-odnoklassniki" viewBox="0 0 24 24">
        <path d="M14.289 16.068c.33.319.618.598.909.875.644.613 1.296 1.22 1.934 1.84.67.65.694 1.557.071 2.176-.629.624-1.624.635-2.294-.01-.934-.9-1.844-1.823-2.794-2.764-.16.145-.26.23-.353.32-.812.778-1.625 1.554-2.432 2.337-.39.378-.837.626-1.408.576-.645-.056-1.113-.372-1.354-.953-.248-.598-.13-1.153.33-1.61.673-.672 1.372-1.318 2.061-1.974.267-.254.538-.503.863-.806-.214-.065-.356-.095-.486-.15-.806-.334-1.635-.629-2.407-1.024-.876-.449-1.114-1.383-.634-2.14.466-.734 1.412-.933 2.247-.475 2.342 1.285 4.684 1.284 7.025-.006.828-.456 1.78-.247 2.243.49.468.747.235 1.677-.618 2.116-.772.398-1.598.697-2.403 1.034-.135.057-.283.085-.5.148zM6.695 7.176c.01-2.858 2.419-5.131 5.422-5.118 2.925.013 5.31 2.344 5.29 5.171-.021 2.865-2.414 5.103-5.441 5.089-2.913-.013-5.282-2.325-5.271-5.142zm5.364-2.03c-1.191-.003-2.158.901-2.175 2.035-.017 1.114 1.009 2.1 2.177 2.093 1.164-.009 2.148-.957 2.154-2.077.005-1.123-.967-2.048-2.156-2.051z"></path>
    </symbol>
    
    <symbol id="wds-icons-twitter" viewBox="0 0 24 24">
        <use xlink:href="#twitter-a" fill-rule="evenodd"></use>
    </symbol>
    
    <symbol id="wds-icons-meneame" viewBox="0 0 24 24">
        <path d="M20.494 7.792c-1.427 1.37-4.004 1.33-4.962 3.181-.818 2.195 1.107 5.702 1.911 7.702.545 1.033-4.253 2.03-3.666 2.285 3.385-.036 4.83-1.206 4.423-2.641-.389-1.373-2.144-4.114-2.144-6.305.05-1.654 2.004-2.162 3.263-2.836 1.463-.62 2.831-2.006 2.453-3.63-.016-.574-1.07-2.482-.64-1.003.235 1.092.347 2.44-.638 3.247"></path>
        <path d="M16.091 5.326c-1.842-.9-3.89-1.444-6.032-.97-1.151.201-2.507.797-3.279 1.794-1.011 1.144-1.05 2.807-.387 4.115.515 1.007 1.299 2.128 2.569 2.296 1.092.155 2.292.015 3.22-.582-1.103.18-2.381.55-3.372-.147-1.66-1.005-2.467-3.287-1.46-4.952.81-1.452 2.441-1.86 4.167-1.932 2.301-.096 4.507 1.147 5.353 1.45.815.242 1.985.55 2.565-.27.339-.38.203-1.429-.072-1.526.08.735-.49 1.659-1.376 1.418-.662-.148-1.27-.449-1.896-.694M3.742 11.824c-1.067 1.592-2.042 3.457-1.67 5.398.342 2.03 2.416 3.46 4.478 3.715 2.117.234 4.23.174 6.352.03.358-.328-1.732-.319-2.612-.439-2.008-.215-4.186-.255-5.907-1.383-1.604-1.136-1.814-3.365-1.045-5.007.644-1.55 1.607-3.048 2.619-4.343-.79.621-1.519 1.084-2.215 2.029"></path>
        <path d="M9.014 16.833c1.251.091 3.326-.029 4.301.616.35.497-.3 3.247-.076 3.564.498.139 1.067-3.222.752-4.057-.239-.637-4.479-.298-4.977-.123"></path>
    </symbol>
    
    <symbol id="wds-icons-reddit" viewBox="0 0 24 24">
        <use xlink:href="#reddit-a" fill-rule="evenodd"></use>
    </symbol>
    
    <symbol id="wds-icons-tumblr" viewBox="0 0 24 24">
        <path d="M13.987 20.999c-3.79.067-5.226-2.794-5.226-4.807V10.31H7V7.985c2.64-.984 3.275-3.447 3.423-4.85.01-.097.083-.135.126-.135h2.549v4.585h3.48v2.725h-3.494v5.603c.013.763.282 1.814 1.675 1.775.461-.012 1.08-.152 1.403-.31L17 19.944c-.315.477-1.734 1.03-3.013 1.054"></path>
    </symbol>
    
    <symbol id="wds-icons-weibo" viewBox="0 0 24 24">
        <path d="M16.562 11.618c-.273-.081-.46-.137-.318-.493.31-.775.342-1.443.006-1.92-.63-.894-2.353-.845-4.328-.024 0 0-.62.27-.461-.219.303-.97.258-1.783-.215-2.253-1.072-1.065-3.921.04-6.365 2.468-1.83 1.819-2.893 3.746-2.893 5.413 0 3.188 4.115 5.126 8.14 5.126 5.275 0 8.785-3.047 8.785-5.465 0-1.46-1.238-2.29-2.351-2.633m-6.424 6.955c-3.211.315-5.984-1.127-6.192-3.223-.209-2.095 2.226-4.049 5.437-4.364 3.212-.316 5.985 1.127 6.193 3.221.208 2.096-2.226 4.05-5.438 4.366m9.927-12.789a5.155 5.155 0 0 0-4.888-1.572.738.738 0 1 0 .31 1.444c1.234-.26 2.57.12 3.476 1.117a3.611 3.611 0 0 1 .763 3.55.744.744 0 0 0 1.414.455v-.003a5.076 5.076 0 0 0-1.075-4.991"></path>
        <path d="M18.109 7.539a2.51 2.51 0 0 0-2.381-.765.635.635 0 1 0 .266 1.242 1.23 1.23 0 0 1 1.165.374c.303.334.385.79.255 1.19a.635.635 0 0 0 .411.8.64.64 0 0 0 .805-.41 2.47 2.47 0 0 0-.521-2.431m-7.649 5.059c-1.53-.395-3.257.362-3.92 1.7-.676 1.365-.023 2.88 1.521 3.375 1.6.513 3.485-.273 4.14-1.746.647-1.44-.16-2.922-1.742-3.329m-1.167 3.486c-.31.492-.976.708-1.477.48-.494-.223-.64-.795-.329-1.275.307-.478.95-.691 1.447-.484.503.213.664.781.359 1.279m1.023-1.306c-.112.191-.36.283-.555.204-.191-.079-.251-.292-.142-.48.112-.186.35-.277.541-.202.194.07.264.286.156.478"></path>
    </symbol>
    
    <symbol id="wds-icons-wykop" viewBox="0 0 24 24">
        <path d="M6.76 20.985a9.543 9.543 0 0 1-2.192-.45c-2.005-.646-2.991-2.095-3.251-3.988a34.21 34.21 0 0 1-.081-8.58c.308-2.687 2.073-4.3 4.983-4.635 3.068-.353 6.147-.287 9.223-.17a19.45 19.45 0 0 1 3.321.41c2.425.52 3.734 2.024 3.981 4.351.26 2.447.35 4.898.157 7.35-.093 1.183-.247 2.37-.935 3.412-.927 1.405-2.37 2.057-4.039 2.22-1.942.19-9.402.211-11.167.08zm7.421-2.064c1.314-.076 2.63-.154 3.933-.313.836-.102 1.547-.53 1.87-1.295.262-.622.516-1.291.548-1.95.093-1.902.101-3.81.08-5.715-.008-.658-.153-1.325-.322-1.967-.314-1.19-1.13-1.917-2.448-2.077-.743-.09-1.491-.189-2.24-.202a175.972 175.972 0 0 0-5.531-.018c-1.19.016-2.381.071-3.565.176-1.546.136-2.424.863-2.808 2.222a5.68 5.68 0 0 0-.126.546c-.345 1.919-.274 3.854-.204 5.784.028.78.155 1.565.317 2.333.23 1.096.928 1.842 2.101 2.132.41.101.833.182 1.253.203 1.656.083 6.422.182 7.142.14zm.995-12.884L12.6 7.227l3.196 6.103-1.269.6-3.248-6.091L8.66 9.048l3.204 6.117-1.269.6L7.34 9.66l-2.563 1.184 3.87 7.369 10.368-4.835-3.838-7.34"></path>
    </symbol>
    
    <symbol id="wds-icons-book-tiny" viewBox="0 0 12 12">
        <use xlink:href="#book-tiny" fill-rule="evenodd"></use>
    </symbol>
    
    <symbol id="wds-icons-dropdown-tiny" viewBox="0 0 12 12">
        <use xlink:href="#dropdown-tiny-a" fill-rule="evenodd"></use>
    </symbol>
    
    <symbol id="wds-icons-home-tiny" viewBox="0 0 12 12">
        <use xlink:href="#home-tiny" fill-rule="evenodd"></use>
    </symbol>
    
    <symbol id="wds-icons-discussions-tiny" viewBox="0 0 12 12">
        <path d="M1,12c-0.13,0-0.26-0.02-0.38-0.08C0.24,11.77,0,11.4,0,11V4c0-0.55,0.45-1,1-1s1,0.45,1,1v4.59l0.29-0.29 C2.48,8.11,2.73,8,3,8h4c0.55,0,1,0.45,1,1s-0.45,1-1,1H3.41l-1.71,1.71C1.52,11.9,1.26,12,1,12z M11.38,8.92 C11.76,8.77,12,8.4,12,8V2c0-1.1-0.9-2-2-2H5C3.9,0,3,0.9,3,2v3c0,1.1,0.9,2,2,2h3.59l1.71,1.71C10.48,8.9,10.74,9,11,9 C11.13,9,11.26,8.98,11.38,8.92z M10,2v3.59L9.71,5.29C9.52,5.11,9.27,5,9,5H5V2H10z"></path>
    </symbol>
    
    <symbol id="wds-icons-discussions-small" viewBox="0 0 18 18">
        <path d="M15,0H7C5.35,0,4,1.35,4,3v4c0,1.65,1.35,3,3,3h5.59l3.7,3.71C16.48,13.9,16.74,14,17,14c0.13,0,0.26-0.02,0.38-0.08 C17.76,13.77,18,13.4,18,13V3C18,1.35,16.65,0,15,0z M16,10.59l-2.29-2.3C13.52,8.11,13.27,8,13,8H7C6.45,8,6,7.55,6,7V3 c0-0.55,0.45-1,1-1h8c0.55,0,1,0.45,1,1V10.59z"></path>
        <path d="M12,13c0,0.55-0.45,1-1,1H5.41l-3.7,3.71c-0.09,0.09-0.21,0.16-0.33,0.21S1.13,18,1,18s-0.26-0.03-0.38-0.08 c-0.25-0.1-0.44-0.29-0.54-0.54C0.03,17.26,0,17.13,0,17V5c0-0.55,0.45-1,1-1s1,0.45,1,1v9.59l2.29-2.3C4.48,12.11,4.73,12,5,12h6 C11.55,12,12,12.45,12,13z"></path>
    </symbol>
    
    <symbol id="wds-icons-activity-small" viewBox="0 0 18 18">
        <use xlink:href="#activity-small" fill-rule="evenodd"></use>
    </symbol>
    
    <symbol id="wds-icons-sun-small" viewBox="0 0 18 18">
        <path d="M9,14a5,5,0,1,1,5-5A5,5,0,0,1,9,14ZM9,6a3,3,0,1,0,3,3A3,3,0,0,0,9,6Zm.2-4a.64.64,0,0,0,.18-.06l.18-.09.15-.12A1.05,1.05,0,0,0,10,1,1,1,0,0,0,9.92.62,1,1,0,0,0,9.71.29L9.56.17,9.38.08A.64.64,0,0,0,9.2,0a1,1,0,0,0-.58.06,1.15,1.15,0,0,0-.33.21,1,1,0,0,0-.21.33A1,1,0,0,0,8,1a1,1,0,0,0,.08.38,1.15,1.15,0,0,0,.21.33A1.05,1.05,0,0,0,9,2Zm.51,15.73a1.15,1.15,0,0,0,.21-.33A1,1,0,0,0,10,17a1,1,0,0,0-1.71-.71A1.05,1.05,0,0,0,8,17a1,1,0,0,0,.08.38,1.15,1.15,0,0,0,.21.33,1,1,0,0,0,1.42,0Zm8-8a1.58,1.58,0,0,0,.12-.15.76.76,0,0,0,.09-.18A.64.64,0,0,0,18,9.2,1.5,1.5,0,0,0,18,9a1,1,0,1,0-2,0,1.5,1.5,0,0,0,0,.2.64.64,0,0,0,.06.18.76.76,0,0,0,.09.18l.12.15a1,1,0,0,0,1.42,0Zm-16,0,.12-.15a.76.76,0,0,0,.09-.18A.64.64,0,0,0,2,9.2,1.5,1.5,0,0,0,2,9a.84.84,0,0,0-.08-.38,1,1,0,0,0-.21-.33,1,1,0,0,0-1.42,0,1,1,0,0,0-.21.33A1,1,0,0,0,0,9a1.5,1.5,0,0,0,0,.2.64.64,0,0,0,.06.18.76.76,0,0,0,.09.18l.12.15a1,1,0,0,0,.33.21A.84.84,0,0,0,1,10,1.05,1.05,0,0,0,1.71,9.71ZM14.85,4.32,15,4.27a1,1,0,0,0,.17-.1.44.44,0,0,0,.15-.12l.13-.15a1.4,1.4,0,0,0,.09-.17,1.39,1.39,0,0,0,.06-.19,1.36,1.36,0,0,0,0-.2A1,1,0,0,0,15.58,3a.87.87,0,0,0-.22-.32.64.64,0,0,0-.15-.13A.91.91,0,0,0,15,2.42l-.19-.06a1,1,0,0,0-.58.06.87.87,0,0,0-.32.22,1,1,0,0,0-.29.7.68.68,0,0,0,0,.2,1.33,1.33,0,0,0,.05.19l.1.17a.79.79,0,0,0,.12.15,1,1,0,0,0,.32.22,1.07,1.07,0,0,0,.39.07A.62.62,0,0,0,14.85,4.32Zm-10.8,11a1,1,0,0,0,.29-.7,1.07,1.07,0,0,0-.07-.39A1,1,0,0,0,4.05,14a1,1,0,0,0-1.41,0,.87.87,0,0,0-.22.32,1.09,1.09,0,0,0-.08.39,1,1,0,0,0,.08.38.87.87,0,0,0,.22.32,1,1,0,0,0,1.41,0Zm11.31,0a1,1,0,0,0,.3-.7,1.09,1.09,0,0,0-.08-.39.87.87,0,0,0-.22-.32A1,1,0,0,0,14,14a1,1,0,0,0-.22.32,1.07,1.07,0,0,0-.07.39,1,1,0,0,0,.07.38,1,1,0,0,0,.22.32,1,1,0,0,0,1.41,0ZM4.05,4.05a.79.79,0,0,0,.12-.15l.1-.17a1.33,1.33,0,0,0,.05-.19.68.68,0,0,0,0-.2,1,1,0,0,0-.29-.7.87.87,0,0,0-.32-.22,1,1,0,0,0-.77,0,.87.87,0,0,0-.32.22A.87.87,0,0,0,2.42,3a1,1,0,0,0-.08.38,1.36,1.36,0,0,0,0,.2l.06.19a1.4,1.4,0,0,0,.09.17l.13.15A1,1,0,0,0,3,4.27a1,1,0,0,0,1.09-.22Z"></path>
    </symbol>
    
    <symbol id="wds-icons-more-small" viewBox="0 0 18 18">
        <use xlink:href="#more-small" fill-rule="evenodd"></use>
    </symbol>
    
    <symbol id="wds-icons-magnifying-glass-tiny" viewBox="0 0 12 12">
        <path fill-rule="evenodd" d="M8 7.947a.331.331 0 0 0-.027.026l-.027.028A3.486 3.486 0 0 1 5.5 9C3.57 9 2 7.43 2 5.5 2 3.571 3.57 2 5.5 2 7.429 2 9 3.571 9 5.5a3.49 3.49 0 0 1-1 2.447m3.707 2.346L10.03 8.616c.611-.886.97-1.96.97-3.116C11 2.468 8.532 0 5.5 0A5.506 5.506 0 0 0 0 5.5C0 8.533 2.467 11 5.5 11a5.464 5.464 0 0 0 3.115-.97l1.677 1.677a.997.997 0 0 0 1.415 0 1 1 0 0 0 0-1.414"></path>
    </symbol>
    
    <symbol id="wds-icons-activity-tiny" viewBox="0 0 12 12">
        <use xlink:href="#activity-tiny" fill-rule="evenodd"></use>
    </symbol>
    
    <symbol id="wds-brand-fandom-logomark" viewBox="0 0 174 242">
        <path fill="#FA005A" d="M166.935 118.154L50.108 1.273C49.504.67 48.735.259 47.898.093c-.837-.166-1.705-.08-2.493.247-.788.327-1.461.88-1.935 1.59-.474.71-.727 1.546-.727 2.4v98.276L7.365 67.22c-.604-.604-1.373-1.014-2.21-1.18-.837-.166-1.704-.08-2.492.247-.789.327-1.462.88-1.936 1.59-.474.71-.727 1.545-.727 2.4v101.487c-.003 3.172.62 6.312 1.833 9.242 1.214 2.929 2.993 5.59 5.237 7.83l46.037 46.099c4.528 4.53 10.666 7.078 17.068 7.085h33.68c6.4-.003 12.537-2.547 17.063-7.075l46.027-46.099c2.239-2.242 4.014-4.904 5.225-7.833 1.21-2.93 1.832-6.069 1.83-9.239v-36.533c.002-3.173-.621-6.315-1.834-9.247-1.212-2.932-2.989-5.596-5.231-7.84z"></path>
        <path fill="#FFC500" d="M131.297 160.901c.001 1.915-.757 3.754-2.108 5.111l-37.11 37.3c-.672.677-1.472 1.215-2.354 1.582-.88.366-1.826.555-2.78.555-.954 0-1.9-.189-2.78-.555-.882-.367-1.682-.905-2.355-1.582l-36.99-37.3c-1.352-1.351-2.114-3.184-2.117-5.096v-14.191c0-.951.19-1.892.554-2.77.366-.878.9-1.675 1.574-2.346l13.317-13.328c.672-.675 1.47-1.209 2.35-1.574.879-.365 1.82-.553 2.772-.553.952 0 1.894.188 2.773.553.879.365 1.677.899 2.35 1.574l18.624 18.645 18.596-18.65c.672-.675 1.47-1.209 2.349-1.574.879-.365 1.821-.553 2.773-.553.951 0 1.893.188 2.772.553.879.365 1.677.899 2.349 1.574l13.318 13.328c.673.671 1.207 1.469 1.571 2.347.364.877.552 1.819.552 2.769v14.181z"></path>
    </symbol>
    
    <symbol id="wds-icons-magnifying-glass" viewBox="0 0 24 24">
        <path d="M10.5 18C6.364 18 3 14.636 3 10.5S6.364 3 10.5 3 18 6.364 18 10.5 14.636 18 10.5 18m12.207 3.293l-4.823-4.822A9.455 9.455 0 0 0 20 10.5C20 5.262 15.738 1 10.5 1S1 5.262 1 10.5 5.262 20 10.5 20c2.26 0 4.338-.793 5.97-2.115l4.823 4.822a.997.997 0 0 0 1.414 0 .999.999 0 0 0 0-1.414"></path>
    </symbol>
    
    <symbol id="wds-icons-pages-tiny" viewBox="0 0 12 12">
        <use xlink:href="#pages-tiny" fill-rule="evenodd"></use>
    </symbol>
    
    <symbol id="wds-icons-pencil-tiny" viewBox="0 0 12 12">
        <use xlink:href="#pencil-tiny" fill-rule="evenodd"></use>
    </symbol>
    
    <symbol id="wds-icons-trash-tiny" viewBox="0 0 12 12">
        <use xlink:href="#trash-tiny" fill-rule="evenodd"></use>
    </symbol>
    
    <symbol id="wds-icons-gripper-tiny" viewBox="0 0 12 12">
        <use xlink:href="#gripper-tiny" fill-rule="evenodd" transform="rotate(90 6 6)"></use>
    </symbol>
    
    <symbol id="wds-icons-alert-tiny" viewBox="0 0 12 12">
        <use xlink:href="#alert-tiny" fill-rule="evenodd"></use>
    </symbol>
    
    <symbol id="wds-icons-gear-tiny" viewBox="0 0 12 12">
        <path fill-rule="evenodd" d="M6 8c-1.103 0-2-.897-2-2s.897-2 2-2 2 .897 2 2-.897 2-2 2m5-3H9.873a3.967 3.967 0 0 0-.428-1.031l.797-.798a.999.999 0 1 0-1.414-1.414l-.798.798A3.983 3.983 0 0 0 7 2.126V1a1 1 0 1 0-2 0v1.126c-.366.096-.713.24-1.03.429l-.798-.798a.999.999 0 1 0-1.414 1.414l.797.798A3.967 3.967 0 0 0 2.127 5H1a1 1 0 1 0 0 2h1.127c.095.366.239.713.428 1.031l-.797.798a.999.999 0 1 0 1.414 1.414l.798-.798c.317.189.664.333 1.03.429V11a1 1 0 1 0 2 0V9.874c.366-.096.713-.24 1.03-.429l.798.798a.999.999 0 1 0 1.414-1.414l-.797-.798c.189-.318.333-.665.428-1.031H11a1 1 0 1 0 0-2"></path>
    </symbol>
</svg>